<svg xmlns="http://www.w3.org/2000/svg" xmlns:xlink="http://www.w3.org/1999/xlink" viewBox="0 0 391.96 200"><defs><style>.cls-1{fill:#126138;}.cls-2{fill:url(#Gradiente_sem_nome_3);}.cls-3{fill:url(#Gradiente_sem_nome_3-2);}</style><linearGradient id="Gradiente_sem_nome_3" x1="32.84" y1="77.11" x2="108.03" y2="77.11" gradientUnits="userSpaceOnUse"><stop offset="0" stop-color="#f2bb37"/><stop offset="1" stop-color="#b1803b"/></linearGradient><linearGradient id="Gradiente_sem_nome_3-2" x1="0" y1="128.58" x2="142.77" y2="128.58" xlink:href="#Gradiente_sem_nome_3"/></defs><g id="Camada_2" data-name="Camada 2"><g id="Camada_1-2" data-name="Camada 1"><path class="cls-1" d="M154.3,85.15h35V97.09H168.91v10H188.1V119H168.91v20.74H154.3Z"/><path class="cls-1" d="M207.66,127l-3.07,12.65H189.48l15.81-54.54h19.46L241,139.69H225.24L221.76,127Zm12.1-10.78-2.53-9.81c-.83-3.07-1.86-7.52-2.71-10.74h-.16c-.81,3.22-1.62,7.71-2.41,10.8l-2.35,9.75Z"/><path class="cls-1" d="M248,85.9a120.5,120.5,0,0,1,17.62-1.17c8.35,0,14.34,1.15,18.45,4.25,3.49,2.67,5.38,6.55,5.38,11.89,0,6.8-5.1,11.63-9.35,13.19v.28c3.62,1.56,5.58,5,7,9.77,1.64,5.54,3.44,13.47,4.49,15.58H276.63c-.83-1.58-2.24-5.85-3.82-12.57-1.48-6.53-3.48-7.88-8-7.88h-2.37v20.45H248Zm14.46,22.86h3.81c5.5,0,8.67-2.69,8.67-6.78s-2.69-6.41-7.54-6.45a24,24,0,0,0-4.94.32Z"/><path class="cls-1" d="M348.54,111.87c0,17.54-10.54,28.71-27.37,28.71S295,127.89,295,112.74c0-15.87,10.39-28.48,27.1-28.48C339.62,84.26,348.54,97.27,348.54,111.87Zm-38.11.61c0,10.26,4.47,16.53,11.45,16.53s11.2-6.84,11.2-16.67c0-9.39-4.2-16.51-11.28-16.51C314.9,95.83,310.43,102.45,310.43,112.48Z"/><path class="cls-1" d="M356.32,85.15h14.61v42.3h21v12.24h-35.6Z"/><path class="cls-1" d="M154.16,149.55a17.17,17.17,0,0,1,3.07-.25,5,5,0,0,1,3.46,1,3.35,3.35,0,0,1,1.09,2.58,3.61,3.61,0,0,1-1,2.64,6.26,6.26,0,0,1-5.06,1.24v5h-1.6Zm1.6,5.94a5,5,0,0,0,1.32.14c1.93,0,3.1-.95,3.1-2.64s-1.16-2.43-2.91-2.43a7.59,7.59,0,0,0-1.51.13Z"/><path class="cls-1" d="M166.44,149.56a17.13,17.13,0,0,1,3.06-.26,5.06,5.06,0,0,1,3.58,1,3.08,3.08,0,0,1,1,2.34,3.26,3.26,0,0,1-2.33,3.15v0a3.11,3.11,0,0,1,1.81,2.5,21,21,0,0,0,.95,3.39h-1.65a16.79,16.79,0,0,1-.81-3c-.37-1.69-1-2.35-2.48-2.4H168v5.35h-1.59Zm1.59,5.62h1.63c1.71,0,2.79-.92,2.79-2.34,0-1.6-1.16-2.3-2.84-2.3a7,7,0,0,0-1.58.14Z"/><path class="cls-1" d="M189.44,155.45c0,4.23-2.59,6.49-5.73,6.49s-5.55-2.53-5.55-6.26c0-3.91,2.42-6.49,5.71-6.49S189.44,151.78,189.44,155.45Zm-9.6.19c0,2.64,1.44,5,3.95,5s4-2.33,4-5.13c0-2.46-1.28-5-3.94-5S179.84,152.94,179.84,155.64Z"/><path class="cls-1" d="M195.92,150.74h-3.76V149.4h9.15v1.34h-3.78v11h-1.61Z"/><path class="cls-1" d="M211.59,156H206.8v4.46h5.36v1.33h-7V149.4h6.67v1.32H206.8v3.91h4.79Z"/><path class="cls-1" d="M220.21,146.6l-2.34,2.14h-1.3l1.69-2.14Zm-1.87,2.8v12.34h-1.6V149.4Z"/><path class="cls-1" d="M223.65,161.74V149.4h1.75l4,6.24a34.29,34.29,0,0,1,2.2,4l0,0c-.15-1.65-.17-3.16-.17-5.07V149.4h1.5v12.34h-1.62l-3.93-6.26a39,39,0,0,1-2.29-4.13l-.06,0c.1,1.56.12,3,.12,5.09v5.28Z"/><path class="cls-1" d="M240.23,157.86,239,161.74H237.3l4.2-12.34h1.92l4.22,12.34h-1.71l-1.32-3.88Zm4.06-1.24-1.23-3.56c-.26-.81-.45-1.54-.63-2.25h0c-.18.72-.37,1.48-.62,2.23l-1.21,3.58Z"/><path class="cls-1" d="M251.76,159.8a5.63,5.63,0,0,0,2.85.8c1.63,0,2.59-.85,2.59-2.1s-.67-1.82-2.33-2.45c-2-.71-3.27-1.77-3.27-3.5,0-1.92,1.6-3.35,4-3.35a5.62,5.62,0,0,1,2.73.6l-.45,1.31a4.6,4.6,0,0,0-2.33-.59c-1.7,0-2.34,1-2.34,1.85,0,1.14.75,1.71,2.46,2.37,2.09.82,3.15,1.82,3.15,3.63s-1.4,3.56-4.32,3.56a6.38,6.38,0,0,1-3.16-.8Z"/><path class="cls-1" d="M276.33,156h-4.79v4.46h5.36v1.33h-7V149.4h6.67v1.32h-5.07v3.91h4.79Z"/><path class="cls-1" d="M297.3,161.19a11.15,11.15,0,0,1-3.79.68,5.81,5.81,0,0,1-6.34-6.22c0-3.68,2.54-6.38,6.68-6.38a7.79,7.79,0,0,1,3.08.57l-.39,1.3a6.32,6.32,0,0,0-2.73-.53,4.61,4.61,0,0,0-5,5c0,3.13,1.88,5,4.77,5a5.16,5.16,0,0,0,2.11-.33v-3.68h-2.49v-1.28h4.06Z"/><path class="cls-1" d="M312.81,155.45c0,4.23-2.58,6.49-5.73,6.49s-5.55-2.53-5.55-6.26c0-3.91,2.42-6.49,5.72-6.49S312.81,151.78,312.81,155.45Zm-9.59.19c0,2.64,1.43,5,3.95,5s4-2.33,4-5.13c0-2.46-1.29-5-3.94-5S303.22,152.94,303.22,155.64Z"/><path class="cls-1" d="M317.4,149.56a17.16,17.16,0,0,1,3.07-.26,5.07,5.07,0,0,1,3.58,1,3.08,3.08,0,0,1,1,2.34,3.28,3.28,0,0,1-2.33,3.15v0a3.13,3.13,0,0,1,1.81,2.5,20,20,0,0,0,.95,3.39h-1.66a16.79,16.79,0,0,1-.81-3c-.36-1.69-1-2.35-2.48-2.4H319v5.35h-1.6Zm1.6,5.62h1.63c1.7,0,2.78-.92,2.78-2.34,0-1.6-1.15-2.3-2.84-2.3a6.88,6.88,0,0,0-1.57.14Z"/><path class="cls-1" d="M329.79,149.56a21.16,21.16,0,0,1,3.39-.26,7.07,7.07,0,0,1,5,1.55,5.62,5.62,0,0,1,1.75,4.42,6.55,6.55,0,0,1-1.78,4.8,7.65,7.65,0,0,1-5.46,1.78,24,24,0,0,1-2.9-.14Zm1.6,10.93a12.27,12.27,0,0,0,1.6.07c3.42,0,5.26-1.89,5.26-5.23,0-2.92-1.63-4.76-5-4.76a10,10,0,0,0-1.87.16Z"/><path class="cls-1" d="M346.11,149.4v7.31c0,2.76,1.22,3.93,2.89,3.93s3-1.21,3-3.93V149.4h1.6v7.2c0,3.79-2,5.34-4.67,5.34-2.52,0-4.42-1.43-4.42-5.27V149.4Z"/><path class="cls-1" d="M358.89,149.56a17.16,17.16,0,0,1,3.07-.26,5.07,5.07,0,0,1,3.58,1,3.08,3.08,0,0,1,1,2.34,3.28,3.28,0,0,1-2.33,3.15v0a3.13,3.13,0,0,1,1.81,2.5,21,21,0,0,0,.95,3.39h-1.65a15.61,15.61,0,0,1-.82-3c-.36-1.69-1-2.35-2.47-2.4h-1.51v5.35h-1.6Zm1.6,5.62h1.63c1.7,0,2.78-.92,2.78-2.34,0-1.6-1.15-2.3-2.83-2.3a6.92,6.92,0,0,0-1.58.14Z"/><path class="cls-1" d="M373.37,157.86l-1.27,3.88h-1.66l4.2-12.34h1.92l4.22,12.34h-1.71l-1.32-3.88Zm4.06-1.24-1.23-3.56c-.26-.81-.45-1.54-.63-2.25h0c-.18.72-.37,1.48-.62,2.23l-1.21,3.58Z"/><path class="cls-1" d="M384.9,159.8a5.63,5.63,0,0,0,2.85.8c1.63,0,2.59-.85,2.59-2.1s-.67-1.82-2.33-2.45c-2-.71-3.27-1.77-3.27-3.5,0-1.92,1.6-3.35,4-3.35a5.62,5.62,0,0,1,2.73.6l-.45,1.31a4.6,4.6,0,0,0-2.33-.59c-1.7,0-2.34,1-2.34,1.85,0,1.14.75,1.71,2.46,2.37,2.09.82,3.15,1.82,3.15,3.63s-1.4,3.56-4.32,3.56a6.38,6.38,0,0,1-3.16-.8Z"/><path class="cls-2" d="M106,67.47H93.59v-19h5.74a1.35,1.35,0,0,0,1.34-1.35V43.61a1.34,1.34,0,0,0-1.34-1.35H95.21A25.09,25.09,0,0,0,72,20.37V1.8A1.77,1.77,0,0,0,70.52,0h-.18a1.7,1.7,0,0,0-1.7,1.7V20.37A25.09,25.09,0,0,0,45.47,42.26H41.54a1.34,1.34,0,0,0-1.34,1.35v3.54a1.35,1.35,0,0,0,1.34,1.35h5.73v19H34.91A2.07,2.07,0,0,0,33,70.32l2.1,5.19A2.08,2.08,0,0,0,37,76.8H47.27l-2,28.33a16.58,16.58,0,0,0,.38,4.87c1.16,4.88,3.86,13.7,6.56,22.18,3.56,11.19,7.13,21.8,7.18,22a47.31,47.31,0,0,0,9.57-6.7l.59-.52c3.41-3.06,6.93-6.22,10-9.57,3.94-4.27,7.75-8.84,11.42-13.26l1.64-2c1.3-1.55,2.55-3.17,3.78-4.8L93.59,76.8h10.27a2.08,2.08,0,0,0,1.92-1.29l2.1-5.19A2.07,2.07,0,0,0,106,67.47ZM61.58,60.05a2.05,2.05,0,0,1-2,2.05H57.94a2.05,2.05,0,0,1-2-2.05V55.92a2.05,2.05,0,0,1,2-2.05h1.59a2.05,2.05,0,0,1,2,2.05Zm11.7,0a2.05,2.05,0,0,1-2,2.05H69.64a2.05,2.05,0,0,1-2-2.05V55.92a2.05,2.05,0,0,1,2-2.05h1.59a2.05,2.05,0,0,1,2,2.05Zm11.7,0a2.05,2.05,0,0,1-2,2.05H81.34a2.05,2.05,0,0,1-2-2.05V55.92a2.05,2.05,0,0,1,2-2.05h1.59a2.05,2.05,0,0,1,2,2.05Z"/><path class="cls-3" d="M142.73,108.26a29.85,29.85,0,0,0-3.1-12.16,41.69,41.69,0,0,0-5.72-8.21,40.76,40.76,0,0,0-8.18-7.17,66.91,66.91,0,0,0-13.06-7.85l-1.51,3.48c13.38,6.18,26.43,17.49,27.81,32.26a40.54,40.54,0,0,1-2.43,15.23l-.63,1.8,0,.13a54.11,54.11,0,0,1-2.93,7.33A142.79,142.79,0,0,1,125.42,146a101.26,101.26,0,0,1-7.3,9.56c-2.67,3.19-5.49,6.2-8.15,9-2.8,3-5.81,6.09-9,9.08s-6.32,5.66-9.91,8.69c-1.43,1.21-3,2.33-4.44,3.42l-1.29,1a5.42,5.42,0,0,1-1.7.9,2.65,2.65,0,0,1-1.28,0l-1.85-.44a14.67,14.67,0,0,1,1.6-2.6c3.7-4.94,7.56-9.76,11.29-14.67a127.31,127.31,0,0,0,14.09-22.53c2.19-4.65,3.8-9.39,3.71-13.44.07-7.82-2.76-13-8.37-16.79-.66-.44-1-.39-1.54.33-1.45,2.05-2.9,4.1-4.52,6-5,5.93-9.84,12-15.09,17.65-3.36,3.64-7.09,7-10.79,10.27a47.82,47.82,0,0,1-15.15,9.35c-6.57,2.48-12.75,1.65-18.63-1.95a34,34,0,0,1-9.25-8.6,97.07,97.07,0,0,1-10.44-17.07c-3.3-6.93-6.3-14-9.44-21-.92-2-1.54-4.25-2.82-6.13-.06-.09-.19-.42-.37-.85a6,6,0,0,1-.42-2.62A45.46,45.46,0,0,1,41.44,61.26q1.23-.23,2.46-.39l-.48-3.71h0c-.88.12-1.78.26-2.65.42a49.22,49.22,0,0,0-40.22,46,7.13,7.13,0,0,0-.47,3.9c.43,3.24.87,6.25,1.36,9.19a151.15,151.15,0,0,0,4.64,20c1.26,4.07,2.61,8.4,4.13,12.62.92,2.53,2,5,3,7.33.36.83.71,1.66,1.06,2.49a102.44,102.44,0,0,0,9.91,18.49,62.07,62.07,0,0,0,12.7,14.07C44,197.28,51.39,200,59.53,200c1,0,2.11-.05,3.16-.14,7.24-.63,13.31-3.52,18.3-6.26.89-.49,5.62-3.19,6.6-3.91l1.28-.95c1.53-1.12,3.11-2.28,4.64-3.58,3.63-3.06,6.88-5.84,10-8.82s6.31-6.24,9.15-9.23,5.57-5.9,8.31-9.18a105.5,105.5,0,0,0,7.56-9.91,145.1,145.1,0,0,0,7.7-13.19,57.9,57.9,0,0,0,3.16-7.84l0-.12c.2-.59.41-1.18.62-1.76a47.39,47.39,0,0,0,1.81-6.5h0a32.3,32.3,0,0,0,.82-7.79C142.77,110,142.77,109.12,142.73,108.26Z"/></g></g></svg>