<svg xmlns="http://www.w3.org/2000/svg" viewBox="0 0 636.53 182.36"><defs><style>.cls-1{fill:#eb6423;}.cls-2{fill:#1c7521;}.cls-3{fill:#383838;}</style></defs><g id="Camada_2" data-name="Camada 2"><g id="Camada_1-2" data-name="Camada 1"><path class="cls-1" d="M113.05,29.72,113,30.88c4,1.69,8,3.53,11.77,5.48l.41.21c0-.4.06-.79.1-1.19C120.64,33,116.33,31.07,113.05,29.72ZM73.75,168l0,0-1,.21c-.9.17-1.66.29-2.41.36l-.15,0a10.74,10.74,0,0,1-1.14.12l-.57.06A36.17,36.17,0,0,1,54,167,43,43,0,0,1,36.53,155.5c-1.08-1.16-2-2.19-2.87-3.28S32,150.12,31.23,149l-.73-.64c-.47-.4-.92-.8-1.37-1.23s-.85-.81-1.26-1.24a61.37,61.37,0,0,0,4.95,7c.84,1.06,1.76,2.13,2.9,3.34a44.2,44.2,0,0,0,17.92,11.83,37.11,37.11,0,0,0,14.88,1.79c.59,0,1.19-.1,1.78-.19.87-.09,1.74-.22,2.63-.39l.46-.1h0c.13,0,.29-.06.48-.08,0-.33,0-.65,0-1V168Z"/><path class="cls-1" d="M163.35,76.46a51,51,0,0,1-.89,9.26c-.21,1.16-.49,2.41-.84,3.8a77.58,77.58,0,0,1-6.81,16.88A115.32,115.32,0,0,1,141,126.62c-.42.5-.81,1-1.21,1.49l-.41.5c-.13.15-.21.24-.29.35l-.32.39-1.68,2c-1.33,1.6-2.7,3.21-4.13,4.75-3.62,3.89-7.4,7.61-11,11.08A166.53,166.53,0,0,1,109,158.66c-1.7,1.33-3.45,2.67-5.24,4l-.16.11c-.79.5-1.56.95-2.28,1.38a90.33,90.33,0,0,1-23.83,9.53l-.23.06-1,.23H76l-2.21.1-1,0H72c-.45,0-.93,0-1.38,0h-.21q-.51,0-1,0h-.11c-.35,0-.72,0-1,0h0c-.52,0-1-.05-1.57-.1-1.41-.09-2.8-.24-4.16-.43a69.32,69.32,0,0,1-16.66-4.33h0l-.44-.24a52,52,0,0,1-12.58-9.82c-1.23-1.32-2.23-2.46-3.13-3.57A74.55,74.55,0,0,1,21,142L21,142a132.06,132.06,0,0,1-6.54-15.81c.25.58.5,1.15.78,1.73s.49,1,.75,1.54a1.5,1.5,0,0,0,.19.38c.2.42.44.85.65,1.25.09.2.21.4.3.59.29.52.59,1.05.9,1.58s.68,1.15,1,1.7.72,1.11,1.09,1.67l1.05,1.51a1.09,1.09,0,0,1,.14.21c.35.44.68.88,1,1.32a3.47,3.47,0,0,0,.3.4c.32.41.65.83,1,1.23a.59.59,0,0,0,.15.19c.38.47.79,1,1.21,1.41s.8.91,1.22,1.35c.12.14.26.28.4.43.32.34.65.69,1,1l.21.21h0a61.37,61.37,0,0,0,4.95,7c.84,1.06,1.76,2.13,2.9,3.34a44.2,44.2,0,0,0,17.92,11.83,37.11,37.11,0,0,0,14.88,1.79c.59,0,1.19-.1,1.78-.19.87-.09,1.74-.22,2.63-.39l.46-.1h0c.13,0,.29-.06.48-.08,0-.33,0-.65,0-1V168l.07,0,.85-.17.18,0a83.6,83.6,0,0,0,23.11-9.08c.6-.33,1.18-.68,1.76-1l.28-.18,1.27-.94s0,0,0,0a58.67,58.67,0,0,0,5.93-3.62c.5-.36,1-.71,1.47-1.08s1.19-.9,1.77-1.36,1-.78,1.43-1.18l0,0c.51-.43,1-.87,1.51-1.31,0,0,0,0,.06-.07.48-.43.93-.85,1.38-1.28.62-.6,1.21-1.21,1.81-1.84.33-.34.67-.68,1-1s.66-.73,1-1.1.6-.72.91-1.08.56-.66.82-1a1.46,1.46,0,0,0,.16-.19c.33-.42.65-.84,1-1.27.12-.17.26-.32.37-.5s.32-.43.47-.66c2-2,4-4,5.86-6s3.77-4.32,5.57-6.51l2.23-2.73c1.57-1.87,2.94-3.58,4.18-5.25.08-.11.17-.22.24-.33s.16-.19.2-.25c.49-.65,1-1.3,1.4-1.94a94.92,94.92,0,0,0,7.06-11.35A71,71,0,0,0,155.51,88c.32-1.22.58-2.33.76-3.39,1.64-8.76.7-16.5-2.84-23.63-.35-.7-.76-1.45-1.31-2.38l-.21-.35A34.48,34.48,0,0,0,149,54.08l-.68-.79-.48-.51c-5.15-5.6-12.77-11-22.66-16.21,0-.4.06-.79.1-1.19-4.63-2.39-8.94-4.31-12.22-5.66,0-1.46,0-2.95,0-4.43,0-.4,0-.81-.06-1.21l.46.17c2.78,1.08,7.06,2.86,12,5.31l.5.25c7.79,3.85,18.69,10.18,26.32,18.45L153,49l0,0,.87,1a39.61,39.61,0,0,1,3.41,4.82,4.24,4.24,0,0,1,.34.54c.56.94,1,1.84,1.48,2.71A40.4,40.4,0,0,1,163.35,76.46Z"/><path class="cls-1" d="M96.11,18.25c-.41.24-.8.49-1.2.76a41.4,41.4,0,0,0-4.13,3l-1,.83c-3.26-1-6-1.83-8.66-2.52l-.45-.11c-1.55-.38-3.18-.8-4.86-1.2l-.66-.14c-2.81-.64-5.3-1.09-7.62-1.41A160.43,160.43,0,0,0,50.26,16a60.06,60.06,0,0,0-8.73.62l-.21,0c-.76.1-1.5.18-2.25.26a42,42,0,0,0-16,5,26,26,0,0,0-8.44,7.44A25,25,0,0,0,13,31.9l-.43.63-.34.58C11,35,6.56,42.83,6.3,57.43a83,83,0,0,0,.4,9.82c.62,4.35,1.21,8.14,1.77,11.24l.1.59c.08.41.16.84.23,1.27s.15.84.22,1.27l0,.14.17.91C9.65,85,10.1,87.48,10.6,90c.17.84.34,1.71.51,2.59h-.94c0,.18-.05.37-.08.55a66.37,66.37,0,0,0-.59,8.58,60.49,60.49,0,0,0,1.16,11.88,0,0,0,0,0,0,0l-1.08.26c-1.48-5.41-2.83-11.22-4.17-17.73l-.17-.89C5,94,4.68,92.58,4.43,91.21c-.45-2.3-.87-4.57-1.27-6.73L2.89,83l-.11-.61c-.08-.49-.17-1-.26-1.42l-.24-1.38C1.69,76.29,1.06,72.28.46,68A91.36,91.36,0,0,1,0,57.31C.32,39.94,6.07,30.85,7.32,29.08a36.76,36.76,0,0,1,2.15-3.43A32.32,32.32,0,0,1,20,16.39,48.75,48.75,0,0,1,38.4,10.64l2.39-.26a63.89,63.89,0,0,1,9.66-.66,170.74,170.74,0,0,1,17.88,1.46,110.9,110.9,0,0,1,11.61,2.34l.81.2c.65.15,1.28.32,1.89.48,4.65,1.2,9.18,2.64,12.61,3.76Z"/><path class="cls-1" d="M45.33,168.88l.44.24a69.08,69.08,0,0,1-7.19-3.35,1.42,1.42,0,0,1-.29-.21A55.46,55.46,0,0,1,32,159.82c-1.25-1.33-2.26-2.49-3.2-3.64A75,75,0,0,1,20.1,142.6l-.09-.16a131.2,131.2,0,0,1-6.6-15.93h0l0-.11c-1.14-3.27-2.21-6.73-3.28-10.59l0-.07-.31-1.1,1-.18c.08.37.15.72.23,1.08a.61.61,0,0,0,.13,0c1.35-.23,2.7-.43,4.07-.57.36-.05.74-.08,1.11-.11,1,3.65,2.14,7.15,3.29,10.42l.11.32c-.39,0-.78,0-1.15,0a35.91,35.91,0,0,0-4.17.43h0a.26.26,0,0,1,0,.09v0A132.06,132.06,0,0,0,21,142l.05,0a74.55,74.55,0,0,0,8.58,13.48c.9,1.11,1.9,2.25,3.13,3.57A52,52,0,0,0,45.33,168.88Z"/><path class="cls-2" d="M59.54,162.83h0Zm0,0h0Zm0,0h0Zm0,0h0Zm0,0h0ZM16.82,131.05a12.36,12.36,0,0,1-.65-1.25C16.37,130.22,16.61,130.65,16.82,131.05ZM16,129.42c-.26-.51-.51-1-.75-1.54C15.45,128.39,15.71,128.91,16,129.42Zm-.75-1.54c-.28-.58-.53-1.15-.78-1.73C14.69,126.73,14.94,127.3,15.23,127.88Zm44.31,35h0Zm0,0h0Zm0,0h0Z"/><path class="cls-2" d="M84.54,162.72h0l.37-.08Z"/><path class="cls-2" d="M129.2,126a.61.61,0,0,1-.07.14.41.41,0,0,0,.08-.14Z"/><path class="cls-2" d="M141.74,86.47c-.3-1.44-.66-2.86-1.06-4.26L138.54,82c-1.88-.18-3.86-.27-5.86-.27h-.27A61.45,61.45,0,0,0,93.46,95.56a63.55,63.55,0,0,0-15.9,19.36V91.38a71.65,71.65,0,0,0,26.6-14.1,60.31,60.31,0,0,0,21-40.71c0-.4.06-.79.1-1.19s.06-.78.08-1.18.06-1.07.08-1.61v-.05c0-.18,0-.35,0-.53,0-.41,0-.82,0-1.21s0-.83,0-1.24c0-2.14-.13-4.28-.36-6.48,0,0,0,0,0,0s0,0,0,0a79.63,79.63,0,0,0-2-11.1c-.3-1.24-.66-2.49-1-3.73a11.59,11.59,0,0,0-5.64-6.54A11.7,11.7,0,0,0,107.91.31c-1.26.34-2.5.7-3.73,1.1A74.61,74.61,0,0,0,93.71,5.57s0,0-.08,0l0,0a69,69,0,0,0-8.24,4.7l0,.05Q82.93,12,80.75,13.72c-.36.28-.72.57-1.07.87s-.69.58-1,.88c-.57.49-1.12,1-1.67,1.52l-1,.91c-.31.31-.62.62-.91.93a59.93,59.93,0,0,0-9.55,12.78,58.49,58.49,0,0,0-3.39,7.22,46.55,46.55,0,0,0-8.45-5.44l-.06,0a46.92,46.92,0,0,0-6.4-2.71h0s0,0,0,0a61.5,61.5,0,0,0-8-2.13c-.93-.16-1.88-.32-2.83-.46a8.46,8.46,0,0,0-6.1,1.74A8.62,8.62,0,0,0,26.7,35c-.17,1-.31,1.9-.42,2.86a56.86,56.86,0,0,0-.47,8.28v.05a.08.08,0,0,0,0,0,49.48,49.48,0,0,0,.58,7v0a45.12,45.12,0,0,0,8,19.78A44.4,44.4,0,0,0,45.52,83.75,52.85,52.85,0,0,0,66.8,92h0v23.3s0,0,0,0A63.14,63.14,0,0,0,49.94,94.93,61.54,61.54,0,0,0,11.77,81.71h-.66c-.69,0-1.37,0-2.06.05-.37,0-.74,0-1.1.06l-1.11.07L5,82.07H5l-1.09.11-.77.09s0,0,0,0c-.07.23-.14.46-.2.69-.32,1.18-.6,2.37-.85,3.57A72.65,72.65,0,0,0,.42,101.79,73.45,73.45,0,0,0,2.24,118c.42,1.85.9,3.7,1.47,5.53.52,1.67,1.11,3.32,1.75,4.94s1.31,3.18,2,4.76l1.17,2.29c.33.65.67,1.28,1,1.89s.68,1.23,1.06,1.82c.7,1.19,1.45,2.37,2.21,3.52h0q1.59,2.33,3.35,4.55c.49.6,1,1.2,1.48,1.79s1,1.16,1.53,1.73.93,1,1.39,1.49.87.89,1.32,1.32a71.33,71.33,0,0,0,16.52,12.19,69.08,69.08,0,0,0,7.19,3.35h0a69.32,69.32,0,0,0,16.66,4.33c1.36.19,2.75.34,4.16.43.52.05,1.05.07,1.57.1h0c.33,0,.7,0,1,0h.11q.51,0,1,0h.21c.45,0,.93,0,1.38,0h.75l1,0L76,174h.28l1.3-.1c1.37-.11,2.76-.27,4.19-.45a71.86,71.86,0,0,0,55.37-42c.51-1.14,1-2.28,1.43-3.45s.77-2.07,1.13-3.12c.16-.49.32-1,.47-1.5.33-1.08.64-2.17.93-3.26.19-.77.38-1.54.55-2.32,0-.1,0-.21.06-.31.19-.86.37-1.72.51-2.58a73.49,73.49,0,0,0-.44-28.36ZM77,38A53,53,0,0,1,89.74,22.8l1-.83a41.4,41.4,0,0,1,4.13-3c.4-.27.79-.52,1.2-.76a62.18,62.18,0,0,1,12.48-5.95c.79-.29,1.58-.54,2.37-.82.21.83.41,1.63.57,2.46A64.39,64.39,0,0,1,113,24.08c0,.4,0,.81.06,1.21.06,1.48.08,3,0,4.43L113,30.88a53.32,53.32,0,0,1-6.67,23.41c-6,10.79-15.47,19-27.71,24.22A51.15,51.15,0,0,0,77,61.46a45.14,45.14,0,0,0-4.84-11.2A53.18,53.18,0,0,1,77,38ZM60.51,81.22A40.18,40.18,0,0,1,42.27,67.38c-5.87-8.12-8.4-18.08-7.35-29.08,0-.61.13-1.21.2-1.83.6.12,1.22.23,1.79.39A42.49,42.49,0,0,1,59.13,49.11a36.69,36.69,0,0,1,3.14,3.77c6.2,8.56,8.65,19.19,7.14,30.91-.52-.1-1-.2-1.52-.33A45.53,45.53,0,0,1,60.51,81.22ZM10.8,114.45c0-.25-.09-.5-.13-.77a0,0,0,0,1,0,0A60.49,60.49,0,0,1,9.5,101.77a66.37,66.37,0,0,1,.59-8.58c0-.18.05-.37.08-.55h.94c.22,0,.44,0,.66,0A51.45,51.45,0,0,1,62,134.34,52.77,52.77,0,0,0,20.8,114.63c-1.48,0-3,.07-4.46.19-.37,0-.75.06-1.11.11-1.37.14-2.72.34-4.07.57a.61.61,0,0,1-.13,0C11,115.17,10.88,114.82,10.8,114.45Zm10.54,23.86a1.09,1.09,0,0,0-.14-.21l-1.05-1.51c-.37-.56-.75-1.11-1.09-1.67s-.7-1.13-1-1.7-.61-1.06-.9-1.58c-.09-.19-.21-.39-.3-.59a12.36,12.36,0,0,1-.65-1.25,1.5,1.5,0,0,1-.19-.38c-.27-.51-.53-1-.75-1.54s-.54-1.15-.78-1.73v0a.26.26,0,0,0,0-.09h0a35.91,35.91,0,0,1,4.17-.43c.37,0,.76,0,1.15,0H20.8a42,42,0,0,1,40.65,31.29,11,11,0,0,1,.33,1.22,43.21,43.21,0,0,1,.94,5.32c-1-.16-2.08-.33-3.12-.55h-.18a3.89,3.89,0,0,0-.4-.1c-.6-.12-1.18-.24-1.75-.39s-1-.24-1.47-.37l-.47-.12-1.48-.43-.53-.17c-.59-.17-1.17-.37-1.75-.57l-.1,0c-.61-.2-1.19-.42-1.78-.64l-.19-.09c-.54-.19-1.06-.4-1.59-.63a64.79,64.79,0,0,1-7.69-3.83c-.39-.24-.76-.46-1.13-.7a62.09,62.09,0,0,1-6.19-4.36c-.36-.29-.71-.56-1.07-.86l-.6-.53-.73-.64c-.47-.4-.92-.8-1.37-1.23s-.85-.81-1.26-1.24h0l-.21-.21c-.36-.34-.69-.69-1-1-.14-.15-.28-.29-.4-.43-.42-.44-.83-.9-1.22-1.35s-.83-.94-1.21-1.41a.59.59,0,0,1-.15-.19c-.34-.4-.67-.82-1-1.23a3.47,3.47,0,0,1-.3-.4C22,139.19,21.69,138.75,21.34,138.31Zm107.79-12.22s0,.09,0,.14h0c-.24.6-.51,1.18-.78,1.76-.1.19-.18.42-.28.61-.23.44-.43.87-.66,1.3l-.11.24c-.29.56-.6,1.12-.91,1.69s-.49.91-.78,1.35-.48.83-.74,1.23a5.05,5.05,0,0,1-.36.58,10.6,10.6,0,0,1-.61.93,9.46,9.46,0,0,1-.59.91c-.13.18-.24.36-.37.52s-.25.36-.38.53-.31.45-.47.66-.25.33-.37.5c-.32.43-.64.85-1,1.27a1.46,1.46,0,0,1-.16.19c-.26.35-.54.68-.82,1s-.6.74-.91,1.08-.65.75-1,1.1-.64.69-1,1c-.6.63-1.19,1.24-1.81,1.84-.45.43-.9.85-1.38,1.28,0,0,0,.05-.06.07-.5.44-1,.88-1.51,1.31l0,0c-.47.4-.94.8-1.43,1.18s-1.16.92-1.77,1.36-1,.72-1.47,1.08a58.67,58.67,0,0,1-5.93,3.62s0,0,0,0l-.14.07a12.38,12.38,0,0,1-1.14.6c-.52.28-1,.56-1.6.81s-1.19.55-1.78.81-1.21.53-1.83.76-1.19.47-1.8.69a.13.13,0,0,1-.08,0c-.41.16-.84.31-1.26.45L91,161c-.32.11-.66.21-1,.31l-1,.31c-.47.14-.93.25-1.42.38l-.14.05c-.6.15-1.19.31-1.8.42l-.26.07-.37.08-.37.08h0c-1,.22-2,.41-3.06.57a39.72,39.72,0,0,1,.92-5.23c.1-.42.2-.82.32-1.23A42.11,42.11,0,0,1,129.2,126h0A.41.41,0,0,1,129.13,126.09Zm-5.75-11.46a52.79,52.79,0,0,0-41.22,19.71,51.44,51.44,0,0,1,50.25-41.73c.33,0,.66,0,1,0a62.79,62.79,0,0,1-.83,22.79A53.12,53.12,0,0,0,123.38,114.63Z"/><path class="cls-3" d="M173.82,28.28a1.78,1.78,0,0,1,1.8-1.76h21.6c15.69,0,23.48,7,23.48,20.78v2.05c0,13.91-7.79,20.87-23.48,20.87h-8.6a1.78,1.78,0,0,0-1.8,1.77V87.85a1.78,1.78,0,0,1-1.8,1.76h-9.4a1.77,1.77,0,0,1-1.8-1.76Zm13,11.69v16.8a1.78,1.78,0,0,0,1.8,1.76h9.29c6.85,0,9.79-2.6,9.79-9.18V47.3c0-6.4-3.12-9.09-9.79-9.09h-9.29A1.78,1.78,0,0,0,186.82,40Z"/><path class="cls-3" d="M259.88,46.38c2.86,2.69,4.33,7,4.33,13V87.85a1.77,1.77,0,0,1-1.8,1.76h-5.69a1.8,1.8,0,0,1-1.45-.71l-1.84-2.45a1.81,1.81,0,0,0-2.6-.3,17.87,17.87,0,0,1-11.58,4.39c-8.75,0-13.6-4.82-13.6-14.19V74.68c0-8.82,6.15-13.46,14.9-13.46A38.35,38.35,0,0,1,250,62.3a1.78,1.78,0,0,0,2.26-1.69V59.37c0-5.57-2.68-7.7-9-7.7a53.76,53.76,0,0,0-12,1.16A1.77,1.77,0,0,1,229,51.12V45.48a1.77,1.77,0,0,1,1.42-1.73,67.57,67.57,0,0,1,13.83-1.46C251.82,42.29,257,43.69,259.88,46.38ZM237.61,74.86v.93c0,3.34,2.16,5,6.58,5a15,15,0,0,0,7.17-1.9,1.73,1.73,0,0,0,.89-1.53V72.54A1.78,1.78,0,0,0,251,70.86a20.67,20.67,0,0,0-6.64-1C240.29,69.85,237.61,71.8,237.61,74.86Z"/><path class="cls-3" d="M288.37,52.59a1.79,1.79,0,0,0-1.8,1.77v20c0,4.54,1,6.49,5.55,6.49a25.78,25.78,0,0,0,3.32-.25,1.79,1.79,0,0,1,2.05,1.74v5.87A1.77,1.77,0,0,1,296,89.89a44.09,44.09,0,0,1-7.38.65c-5.63,0-9.36-1.39-11.18-4.08s-2.86-6.68-2.86-12.15v-20a1.78,1.78,0,0,0-1.8-1.77H271.3a1.78,1.78,0,0,1-1.8-1.76V47.2a1.75,1.75,0,0,1,.88-1.52l3.6-2.09a1.77,1.77,0,0,0,.82-1.06l3-11a1.79,1.79,0,0,1,1.73-1.31h5.23a1.78,1.78,0,0,1,1.8,1.76v9.47a1.78,1.78,0,0,0,1.8,1.76h7.32a1.78,1.78,0,0,1,1.8,1.76v5.85a1.78,1.78,0,0,1-1.8,1.76Z"/><path class="cls-3" d="M339.11,70.78H316.36a1.76,1.76,0,0,0-1.79,1.88c.46,5.49,2.89,8.51,10.4,8.51A63.37,63.37,0,0,0,337,79.85a1.79,1.79,0,0,1,2.14,1.73v5.78a1.78,1.78,0,0,1-1.43,1.73,65.36,65.36,0,0,1-13.13,1.45c-8.76,0-15-2.32-18.12-6.21s-4.33-8.17-4.33-14v-7.8c0-13.45,6.59-20.23,19.68-20.23,7.19,0,12.13,1.67,14.9,5.11s4.16,8.26,4.16,14.38V69A1.78,1.78,0,0,1,339.11,70.78ZM327.5,62.06a1.79,1.79,0,0,0,1.8-1.77h0c0-5.56-1.91-8.62-7.45-8.62s-7.37,3.06-7.37,8.62h0a1.78,1.78,0,0,0,1.8,1.77Z"/><path class="cls-3" d="M387.37,55.75v32.1a1.78,1.78,0,0,1-1.8,1.76H377.2a1.78,1.78,0,0,1-1.8-1.76V57.51c0-3.71-1.82-5.1-6-5.1a15.94,15.94,0,0,0-7.89,2.26,1.76,1.76,0,0,0-.87,1.52V87.85a1.77,1.77,0,0,1-1.8,1.76H350.6a1.77,1.77,0,0,1-1.8-1.76V45a1.78,1.78,0,0,1,1.8-1.76h5.68a1.79,1.79,0,0,1,1.46.74l1.78,2.42a1.81,1.81,0,0,0,2.58.34,19.69,19.69,0,0,1,12.61-4.43C383.12,42.29,387.37,46.75,387.37,55.75Z"/><path class="cls-3" d="M429.05,45.43v5.83A1.78,1.78,0,0,1,426.91,53a64.74,64.74,0,0,0-12-1.32c-4.76,0-7.1,1.2-7.1,3.61v.93c0,3.81,8.23,4,14.64,6,4.43,1.49,8,5.48,8,11.79V75.7c0,9.93-6.24,14.84-18.81,14.84a69.31,69.31,0,0,1-15.19-1.42,1.76,1.76,0,0,1-1.36-1.72V81.59a1.8,1.8,0,0,1,2.18-1.72,67.54,67.54,0,0,0,13.07,1.3c5.29,0,7.89-1.48,7.89-4.36v-.93c0-6.59-22.62-.46-22.62-18.55v-2c0-8.25,6.59-13,18.37-13a60.16,60.16,0,0,1,13.73,1.42A1.76,1.76,0,0,1,429.05,45.43Z"/><path class="cls-3" d="M474.79,70.78H451.38a1.8,1.8,0,0,0-1.85,1.88c.48,5.49,3,8.51,10.7,8.51a67.11,67.11,0,0,0,12.43-1.32,1.83,1.83,0,0,1,2.2,1.73v5.78a1.79,1.79,0,0,1-1.47,1.73,69.16,69.16,0,0,1-13.51,1.45c-9,0-15.43-2.32-18.64-6.21s-4.46-8.17-4.46-14v-7.8c0-13.45,6.78-20.23,20.24-20.23,7.4,0,12.49,1.67,15.34,5.11s4.28,8.26,4.28,14.38V69A1.81,1.81,0,0,1,474.79,70.78Zm-12-8.72a1.81,1.81,0,0,0,1.85-1.77h0c0-5.56-2-8.62-7.67-8.62s-7.58,3.06-7.58,8.62h0a1.81,1.81,0,0,0,1.86,1.77Z"/><path class="cls-3" d="M184.12,147.11h-17.4a1.79,1.79,0,0,0-1.72,1.28l-3.29,11.41a1.78,1.78,0,0,1-1.72,1.28h-9.44a1.76,1.76,0,0,1-1.72-2.24L166.53,99a1.79,1.79,0,0,1,1.72-1.26h14.34A1.79,1.79,0,0,1,184.31,99L202,158.84a1.76,1.76,0,0,1-1.72,2.24h-9.44a1.78,1.78,0,0,1-1.72-1.28l-3.29-11.41A1.79,1.79,0,0,0,184.12,147.11Zm-2.63-13.89-4.3-14.91a1.8,1.8,0,0,0-3.45,0l-4.31,14.91a1.77,1.77,0,0,0,1.73,2.24h8.61A1.76,1.76,0,0,0,181.49,133.22Z"/><path class="cls-3" d="M244.27,114.82a1.78,1.78,0,0,1,1.79,1.76v45.61c0,10.74-3.94,20.17-22.08,20.17a62.58,62.58,0,0,1-12.88-1.44,1.78,1.78,0,0,1-1.41-1.72v-5.74a1.78,1.78,0,0,1,2.15-1.72,59.1,59.1,0,0,0,11.8,1.28c8.56,0,10.61-3.89,10.61-10.83v-2.81a1.8,1.8,0,0,0-2.86-1.4,16.77,16.77,0,0,1-9.8,3.29q-14.64,0-14.64-19.43v-8.51q0-19.44,14.64-19.43a17.42,17.42,0,0,1,11.23,4.38,1.82,1.82,0,0,0,2.6-.31l1.8-2.43a1.82,1.82,0,0,1,1.45-.72Zm-10,32.6V127.68a1.71,1.71,0,0,0-.78-1.45,13,13,0,0,0-7.09-2.25c-5.56,0-7.27,2.78-7.27,9.35v8.51c0,6.38,1.71,9.25,7.27,9.25a12.54,12.54,0,0,0,7.14-2.24A1.73,1.73,0,0,0,234.25,147.42Z"/><path class="cls-3" d="M278.48,124.75a26.07,26.07,0,0,0-10.63,2.19,1.77,1.77,0,0,0-1,1.58v30.81a1.78,1.78,0,0,1-1.8,1.75h-8.13a1.78,1.78,0,0,1-1.8-1.75V116.58a1.78,1.78,0,0,1,1.8-1.76h5.5a1.82,1.82,0,0,1,1.53.84l1.67,2.66a1.82,1.82,0,0,0,2.8.32,16.61,16.61,0,0,1,9.81-4.64,1.79,1.79,0,0,1,2,1.76V123A1.77,1.77,0,0,1,278.48,124.75Z"/><path class="cls-3" d="M366.8,142.3H344.37a1.77,1.77,0,0,0-1.79,1.87c.46,5.48,2.86,8.49,10.27,8.49a62,62,0,0,0,11.89-1.3,1.78,1.78,0,0,1,2.14,1.72v5.76a1.77,1.77,0,0,1-1.41,1.72,63.79,63.79,0,0,1-13,1.45c-8.64,0-14.81-2.31-17.89-6.2s-4.27-8.14-4.27-14v-7.77c0-13.42,6.5-20.17,19.42-20.17,7.1,0,12,1.66,14.72,5.09s4.11,8.23,4.11,14.34v7.21A1.78,1.78,0,0,1,366.8,142.3Zm-11.46-8.7a1.77,1.77,0,0,0,1.79-1.75h0c0-5.55-1.88-8.61-7.36-8.61s-7.27,3.06-7.27,8.61h0a1.77,1.77,0,0,0,1.79,1.75Z"/><path class="cls-3" d="M409.5,117.07v5.73a1.79,1.79,0,0,1-2.16,1.72,53.82,53.82,0,0,0-10.93-1.28c-6.51,0-8.73,3.7-8.73,10.83v7.77c0,7.12,2.22,10.82,8.73,10.82a57,57,0,0,0,10.94-1.3,1.78,1.78,0,0,1,2.15,1.72v5.76a1.77,1.77,0,0,1-1.42,1.72,62.41,62.41,0,0,1-12.7,1.45c-13.26,0-19.85-6.76-19.85-20.17v-7.77c0-13.42,6.59-20.17,19.85-20.17a62.41,62.41,0,0,1,12.7,1.45A1.76,1.76,0,0,1,409.5,117.07Z"/><path class="cls-3" d="M455.71,134.07v7.77c0,13.41-6.76,20.17-20.28,20.17s-20.2-6.76-20.2-20.17v-7.77c0-13.42,6.76-20.17,20.2-20.17S455.71,120.65,455.71,134.07Zm-20.28-10.83q-4.76,0-6.42,2.78c-1.11,1.94-1.62,4.62-1.62,8v7.77c0,6.94,1.62,10.82,8,10.82s8.13-4.07,8.13-10.82v-7.77c0-3.43-.52-6-1.63-8S438.59,123.24,435.43,123.24Z"/><path class="cls-3" d="M324.32,134.07v7.77c0,13.41-6.76,20.17-20.28,20.17s-20.19-6.76-20.19-20.17v-7.77c0-13.42,6.76-20.17,20.19-20.17S324.32,120.65,324.32,134.07ZM304,123.24q-4.74,0-6.41,2.78c-1.12,1.94-1.63,4.62-1.63,8v7.77c0,6.94,1.63,10.82,8,10.82s8.13-4.07,8.13-10.82v-7.77c0-3.43-.51-6-1.62-8S307.21,123.24,304,123.24Z"/><path class="cls-3" d="M463.5,159.33V98.08a1.77,1.77,0,0,1,1.79-1.76h8.14a1.77,1.77,0,0,1,1.79,1.76v61.25a1.77,1.77,0,0,1-1.79,1.75h-8.14A1.77,1.77,0,0,1,463.5,159.33Z"/><path class="cls-3" d="M523.57,134.07v7.77c0,13.41-6.76,20.17-20.28,20.17s-20.2-6.76-20.2-20.17v-7.77c0-13.42,6.76-20.17,20.2-20.17S523.57,120.65,523.57,134.07Zm-20.28-10.83q-4.76,0-6.42,2.78c-1.11,1.94-1.63,4.62-1.63,8v7.77c0,6.94,1.63,10.82,8.05,10.82s8.13-4.07,8.13-10.82v-7.77c0-3.43-.52-6-1.63-8S506.45,123.24,503.29,123.24Z"/><path class="cls-3" d="M567.81,114.82a1.78,1.78,0,0,1,1.8,1.76v45.61c0,10.74-3.94,20.17-22.08,20.17a62.44,62.44,0,0,1-12.88-1.44,1.78,1.78,0,0,1-1.41-1.72v-5.74a1.78,1.78,0,0,1,2.15-1.72,59,59,0,0,0,11.8,1.28c8.55,0,10.61-3.89,10.61-10.83v-2.81a1.8,1.8,0,0,0-2.87-1.4,16.73,16.73,0,0,1-9.8,3.29q-14.62,0-14.63-19.43v-8.51q0-19.44,14.63-19.43a17.45,17.45,0,0,1,11.24,4.38A1.81,1.81,0,0,0,559,118l1.81-2.43a1.81,1.81,0,0,1,1.45-.72Zm-10,32.6V127.68a1.73,1.73,0,0,0-.78-1.45,13,13,0,0,0-7.1-2.25c-5.56,0-7.27,2.78-7.27,9.35v8.51c0,6.38,1.71,9.25,7.27,9.25a12.54,12.54,0,0,0,7.14-2.24A1.74,1.74,0,0,0,557.8,147.42Z"/><path class="cls-3" d="M584.84,107.42c-4.53,0-6.76-2.31-6.76-6.94s2.23-6.85,6.76-6.85,6.76,2.32,6.76,6.85S589.38,107.42,584.84,107.42ZM579,159.33V116.58a1.78,1.78,0,0,1,1.8-1.76H589a1.78,1.78,0,0,1,1.8,1.76v42.75a1.78,1.78,0,0,1-1.8,1.75h-8.13A1.78,1.78,0,0,1,579,159.33Z"/><path class="cls-3" d="M632.25,118c2.82,2.68,4.28,7,4.28,12.95v28.41a1.78,1.78,0,0,1-1.8,1.75h-5.59a1.81,1.81,0,0,1-1.45-.72l-1.8-2.42a1.82,1.82,0,0,0-2.6-.3A17.49,17.49,0,0,1,611.88,162c-8.64,0-13.43-4.81-13.43-14.16v-1.66c0-8.79,6.07-13.42,14.71-13.42a37.19,37.19,0,0,1,9.29,1.07,1.79,1.79,0,0,0,2.27-1.69v-1.23c0-5.55-2.66-7.68-8.9-7.68A52.2,52.2,0,0,0,604,124.4a1.79,1.79,0,0,1-2.22-1.7v-5.63a1.78,1.78,0,0,1,1.42-1.73,66.42,66.42,0,0,1,13.64-1.44C624.29,113.9,629.42,115.28,632.25,118Zm-22,28.4v.93c0,3.33,2.13,5,6.5,5a14.72,14.72,0,0,0,7.07-1.89,1.71,1.71,0,0,0,.89-1.52v-4.83a1.77,1.77,0,0,0-1.24-1.67,20.12,20.12,0,0,0-6.55-1C612.91,141.38,610.26,143.32,610.26,146.37Z"/></g></g></svg>